<svg width="24" height="23" viewBox="0 0 24 23" fill="none" xmlns="http://www.w3.org/2000/svg">
<path d="M17.2289 0C15.1859 0 13.2734 0.925029 12 2.4749C10.7266 0.924976 8.81417 0 6.77106 0C3.0375 0 0 3.03745 0 6.77106C0 9.69463 1.7433 13.0762 5.18136 16.8218C7.82722 19.7043 10.7055 21.9362 11.5246 22.5516L11.9998 22.9086L12.4751 22.5516C13.2942 21.9362 16.1726 19.7044 18.8185 16.8219C22.2567 13.0763 24 9.69468 24 6.77106C24 3.03745 20.9625 0 17.2289 0ZM17.6527 15.7518C15.4764 18.1227 13.135 20.0393 11.9998 20.9226C10.8647 20.0393 8.52343 18.1226 6.34713 15.7518C3.23003 12.3558 1.58242 9.25034 1.58242 6.77106C1.58242 3.91005 3.91005 1.58242 6.77106 1.58242C8.65382 1.58242 10.3923 2.60856 11.308 4.26045L12 5.50877L12.692 4.26045C13.6077 2.60862 15.3461 1.58242 17.2289 1.58242C20.09 1.58242 22.4176 3.91 22.4176 6.77106C22.4176 9.25045 20.7699 12.3559 17.6527 15.7518Z" fill="#8F8C8C"/>
</svg>
