<svg width="24" height="24" viewBox="0 0 24 24" fill="none" xmlns="http://www.w3.org/2000/svg">
<path d="M0.5 12C0.5 5.64914 5.64914 0.5 12 0.5C18.3509 0.5 23.5 5.64914 23.5 12C23.5 18.3509 18.3509 23.5 12 23.5C5.64914 23.5 0.5 18.3509 0.5 12ZM13.5 18V13.5H18C18.8278 13.5 19.5 12.8295 19.5 12C19.5 11.1705 18.8278 10.5 18 10.5H13.5V6C13.5 5.17053 12.8278 4.5 12 4.5C11.1722 4.5 10.5 5.17053 10.5 6V10.5H6C5.17218 10.5 4.5 11.1705 4.5 12C4.5 12.8295 5.17218 13.5 6 13.5H10.5V18C10.5 18.8295 11.1722 19.5 12 19.5C12.8278 19.5 13.5 18.8295 13.5 18Z" stroke="black" stroke-opacity="0.4"/>
</svg>
