<svg width="30" height="30" viewBox="0 0 30 30" fill="none" xmlns="http://www.w3.org/2000/svg">
<path d="M15 3C8.373 3 3 8.373 3 15C3 21.627 8.373 27 15 27C21.627 27 27 21.627 27 15C27 8.373 21.627 3 15 3ZM16.414 15C16.414 15 19.553 18.139 19.707 18.293C20.098 18.684 20.098 19.317 19.707 19.707C19.316 20.098 18.683 20.098 18.293 19.707C18.139 19.554 15 16.414 15 16.414C15 16.414 11.861 19.553 11.707 19.707C11.316 20.098 10.683 20.098 10.293 19.707C9.902 19.316 9.902 18.683 10.293 18.293C10.446 18.139 13.586 15 13.586 15C13.586 15 10.447 11.861 10.293 11.707C9.902 11.316 9.902 10.683 10.293 10.293C10.684 9.902 11.317 9.902 11.707 10.293C11.861 10.446 15 13.586 15 13.586C15 13.586 18.139 10.447 18.293 10.293C18.684 9.902 19.317 9.902 19.707 10.293C20.098 10.684 20.098 11.317 19.707 11.707C19.554 11.861 16.414 15 16.414 15Z" fill="#8F8C8C"/>
</svg>
