<svg width="25" height="24" viewBox="0 0 25 24" fill="none" xmlns="http://www.w3.org/2000/svg">
<path d="M10.4105 0C4.90279 0 0.416504 4.48629 0.416504 9.99396C0.416504 15.5016 4.90279 19.9879 10.4105 19.9879C12.8055 19.9879 15.0051 19.1374 16.7289 17.7256L22.696 23.6927C22.7881 23.7886 22.8984 23.8652 23.0205 23.918C23.1425 23.9707 23.2739 23.9986 23.4068 23.9999C23.5398 24.0013 23.6717 23.9761 23.7948 23.9258C23.9179 23.8756 24.0297 23.8013 24.1238 23.7073C24.2178 23.6132 24.2921 23.5014 24.3424 23.3783C24.3926 23.2552 24.4178 23.1233 24.4165 22.9903C24.4151 22.8574 24.3872 22.726 24.3345 22.604C24.2817 22.4819 24.2051 22.3716 24.1092 22.2795L18.1421 16.3124C19.5539 14.5886 20.4044 12.389 20.4044 9.99396C20.4044 4.48629 15.9181 0 10.4105 0ZM10.4105 1.99879C14.8379 1.99879 18.4056 5.56652 18.4056 9.99396C18.4056 14.4214 14.8379 17.9891 10.4105 17.9891C5.98302 17.9891 2.4153 14.4214 2.4153 9.99396C2.4153 5.56652 5.98302 1.99879 10.4105 1.99879Z" fill="black" fill-opacity="0.4"/>
</svg>
